HIERARCHY
ROOT Hips
{
	OFFSET 0.000000 88.474243 0.000000
	CHANNELS 6 Xposition Yposition Zposition Zrotation Yrotation Xrotation 
	JOINT Hips_Spine
	{
		OFFSET 0.000000 0.000000 0.000000
		CHANNELS 3 Zrotation Yrotation Xrotation
		JOINT Spine
		{
			OFFSET 0.005100 8.711998 -0.691000
			CHANNELS 3 Zrotation Yrotation Xrotation
			JOINT Spine1
			{
				OFFSET -0.009200 8.660301 -1.275000
				CHANNELS 3 Zrotation Yrotation Xrotation
				JOINT Spine2
				{
					OFFSET 0.006300 9.852501 -1.857000
					CHANNELS 3 Zrotation Yrotation Xrotation
					JOINT Spine2_Neck
					{
						OFFSET 0.000000 0.000000 0.000000
						CHANNELS 3 Zrotation Yrotation Xrotation
						JOINT Neck
						{
							OFFSET 0.016300 11.420799 -0.263300
							CHANNELS 3 Zrotation Yrotation Xrotation
							End Site #name: Head
							{
								OFFSET -0.019200 9.262405 2.362500
							}
						}
					}
					JOINT Spine2_LeftShoulder
					{
						OFFSET 0.000000 0.000000 0.000000
						CHANNELS 3 Zrotation Yrotation Xrotation
						JOINT LeftShoulder
						{
							OFFSET 5.616900 6.732201 -0.345700
							CHANNELS 3 Zrotation Yrotation Xrotation
							JOINT LeftArm
							{
								OFFSET 10.664888 -0.183372 -2.440700
								CHANNELS 3 Zrotation Yrotation Xrotation
								JOINT LeftForeArm
								{
									OFFSET 27.459126 0.000000 0.000000
									CHANNELS 3 Zrotation Yrotation Xrotation
									End Site #name: LeftHand
									{
										OFFSET 21.306858 0.000000 0.000000
									}
								}
							}
						}
					}
					JOINT Spine2_RightShoulder
					{
						OFFSET 0.000000 0.000000 0.000000
						CHANNELS 3 Zrotation Yrotation Xrotation
						JOINT RightShoulder
						{
							OFFSET -5.580300 6.737503 -0.344400
							CHANNELS 3 Zrotation Yrotation Xrotation
							JOINT RightArm
							{
								OFFSET -10.679335 -0.188484 -2.383900
								CHANNELS 3 Zrotation Yrotation Xrotation
								JOINT RightForeArm
								{
									OFFSET -27.503529 0.000000 0.000000
									CHANNELS 3 Zrotation Yrotation Xrotation
									End Site #name: RightHand
									{
										OFFSET -21.306808 0.000000 0.000000
									}
								}
							}
						}
					}
				}
			}
		}
	}
	JOINT Hips_LeftUpLeg
	{
		OFFSET 0.000000 0.000000 0.000000
		CHANNELS 3 Zrotation Yrotation Xrotation
		JOINT LeftUpLeg
		{
			OFFSET 6.857700 -6.739601 0.312100
			CHANNELS 3 Zrotation Yrotation Xrotation
			JOINT LeftLeg
			{
				OFFSET -0.367590 -34.731552 -4.572400
				CHANNELS 3 Zrotation Yrotation Xrotation
				End Site #name: LeftFoot
				{
					OFFSET 0.367590 -34.656704 -6.067400
				}
			}
		}
	}
	JOINT Hips_RightUpLeg
	{
		OFFSET 0.000000 0.000000 0.000000
		CHANNELS 3 Zrotation Yrotation Xrotation
		JOINT RightUpLeg
		{
			OFFSET -6.876100 -6.733299 0.301000
			CHANNELS 3 Zrotation Yrotation Xrotation
			JOINT RightLeg
			{
				OFFSET 0.347353 -34.795158 -4.515900
				CHANNELS 3 Zrotation Yrotation Xrotation
				End Site #name: RightFoot
				{
					OFFSET -0.347353 -34.589367 -6.070300
				}
			}
		}
	}
}
MOTION
Frames: 14
Frame Time: 0.041667
-0.163523 0.151192 -1.540207 -7.937183 2.781549 -8.225851 0.000000 0.000000 0.000000 4.268006 0.093128 17.668314 1.100713 0.028709 6.038371 0.000000 0.000000 0.000000 1.462039 0.159707 5.494088 0.300333 -2.274623 9.797961 1.334517 0.075957 5.526785 -7.129766 -6.381032 1.003332 -59.211398 -17.069825 3.234497 0.072257 -59.894140 0.597270 1.307963 0.130665 5.686998 6.680864 1.042754 0.406041 74.670556 35.828372 26.185063 -0.896729 74.228567 -0.672258 0.000000 0.000000 0.000000 7.526272 3.786412 -84.137525 -2.188430 -2.629229 82.182224 -0.000000 -0.000000 0.000000 2.950593 -12.537620 -77.114060 3.020435 -2.966739 84.065160 
-0.170786 0.156723 -1.585149 -7.931879 2.787340 -8.229771 0.000000 0.000000 0.000000 4.270857 0.096547 17.664120 1.107020 0.026293 6.053620 0.000000 0.000000 0.000000 1.467088 0.159243 5.510545 0.312672 -2.267564 9.779449 1.338943 0.075835 5.536548 -7.120137 -6.471159 1.020144 -59.138055 -17.160107 3.067226 0.074062 -59.609174 0.594415 1.313733 0.130789 5.698830 6.709691 1.038761 0.412688 74.656750 36.024490 26.679237 -0.849403 73.140323 -0.631342 0.000000 0.000000 0.000000 7.527413 3.783814 -84.130502 -2.178864 -2.634930 82.172456 -0.000000 -0.000000 0.000000 2.957526 -12.536428 -77.111637 3.022670 -2.967901 84.066711 
-0.176928 0.162027 -1.629871 -7.926828 2.792386 -8.233511 0.000000 0.000000 0.000000 4.272744 0.101018 17.651819 1.112784 0.024387 6.065319 0.000000 0.000000 0.000000 1.471263 0.159121 5.524445 0.328466 -2.259389 9.760382 1.342911 0.075976 5.545226 -7.108218 -6.566030 1.038701 -59.060756 -17.256288 2.913173 0.075212 -59.275064 0.592088 1.319252 0.130641 5.707385 6.740664 1.029018 0.418664 74.632286 36.182563 26.995339 -0.800689 72.108782 -0.589649 0.000000 0.000000 0.000000 7.529646 3.781193 -84.129639 -2.171071 -2.639734 82.170238 -0.000000 -0.000000 0.000000 2.960245 -12.535547 -77.107621 3.021173 -2.971157 84.073047 
-0.181916 0.167233 -1.674385 -7.923052 2.795172 -8.236261 0.000000 0.000000 0.000000 4.271597 0.106911 17.634551 1.118397 0.022610 6.073452 0.000000 0.000000 0.000000 1.474925 0.159080 5.534612 0.344997 -2.247969 9.740895 1.346419 0.076273 5.551432 -7.098807 -6.663115 1.058068 -58.980546 -17.338723 2.752430 0.077001 -58.931480 0.589463 1.323914 0.130622 5.713016 6.770221 1.021162 0.424882 74.586213 36.334281 27.279667 -0.763940 71.215557 -0.561871 0.000000 0.000000 0.000000 7.532001 3.777223 -84.127414 -2.158786 -2.643308 82.162405 -0.000000 -0.000000 0.000000 2.968685 -12.534711 -77.109263 3.020904 -2.973170 84.073906 
-0.185779 0.172372 -1.718653 -7.919980 2.798222 -8.237414 0.000000 0.000000 0.000000 4.268883 0.113486 17.611123 1.123414 0.021461 6.078946 0.000000 0.000000 0.000000 1.478239 0.159408 5.541540 0.363222 -2.236401 9.717762 1.349376 0.076952 5.554915 -7.099160 -6.755764 1.076904 -58.881632 -17.412791 2.573685 0.077745 -58.565602 0.587151 1.328029 0.131199 5.716171 6.795901 1.016801 0.430262 74.498768 36.456757 27.506476 -0.732084 70.405248 -0.539035 0.000000 0.000000 0.000000 7.532854 3.776671 -84.125243 -2.151339 -2.647441 82.158172 -0.000000 -0.000000 0.000000 2.974546 -12.534992 -77.110012 3.018914 -2.974535 84.078516 
-0.188472 0.177468 -1.762741 -7.918296 2.800377 -8.236356 0.000000 0.000000 0.000000 4.266618 0.122556 17.588509 1.128089 0.020302 6.081114 0.000000 0.000000 0.000000 1.480622 0.160199 5.546272 0.381011 -2.221808 9.692913 1.352082 0.078267 5.558478 -7.101420 -6.851153 1.096445 -58.783864 -17.482059 2.381005 0.078085 -58.185889 0.584163 1.331764 0.131828 5.717524 6.826218 1.006354 0.434929 74.416852 36.572009 27.719690 -0.704950 69.601181 -0.520033 0.000000 0.000000 0.000000 7.533986 3.775400 -84.124511 -2.142762 -2.649940 82.156052 -0.000000 -0.000000 0.000000 2.983069 -12.535777 -77.113607 3.020535 -2.978179 84.081948 
-0.190049 0.182516 -1.806581 -7.918127 2.802457 -8.235861 0.000000 0.000000 0.000000 4.260789 0.131681 17.560557 1.131333 0.020134 6.081871 0.000000 0.000000 0.000000 1.482610 0.161226 5.549195 0.397574 -2.207944 9.665159 1.353835 0.079675 5.559182 -7.104791 -6.943984 1.117026 -58.698158 -17.550067 2.206748 0.079048 -57.765044 0.580710 1.334413 0.133450 5.717298 6.857008 0.994265 0.439094 74.354626 36.633928 27.939427 -0.681534 68.793312 -0.507318 0.000000 0.000000 0.000000 7.536129 3.772658 -84.122427 -2.132949 -2.649881 82.152529 -0.000000 -0.000000 0.000000 2.990154 -12.536383 -77.118356 3.021211 -2.979639 84.095023 
-0.190447 0.187514 -1.850237 -7.920036 2.803585 -8.235375 0.000000 0.000000 0.000000 4.256045 0.140600 17.531436 1.135188 0.020054 6.082188 0.000000 0.000000 0.000000 1.483624 0.162514 5.551320 0.417141 -2.190572 9.636626 1.355452 0.081945 5.560930 -7.106836 -7.040288 1.136047 -58.598600 -17.626475 2.023850 0.082381 -57.251548 0.574140 1.336870 0.134482 5.714642 6.886832 0.985256 0.442457 74.313358 36.704601 28.166192 -0.659100 67.950751 -0.495521 0.000000 0.000000 0.000000 7.536983 3.769649 -84.120764 -2.125395 -2.649962 82.152191 -0.000000 -0.000000 0.000000 2.995121 -12.539313 -77.121179 3.020249 -2.982209 84.103198 
-0.189691 0.192584 -1.893649 -7.922714 2.807158 -8.234739 0.000000 0.000000 0.000000 4.251565 0.150746 17.504229 1.137413 0.019582 6.081279 0.000000 0.000000 0.000000 1.484324 0.163947 5.551281 0.431676 -2.175470 9.609056 1.355738 0.084498 5.560898 -7.110683 -7.138015 1.157679 -58.513512 -17.703502 1.857659 0.088495 -56.637188 0.563592 1.339188 0.136123 5.712485 6.914534 0.977822 0.450576 74.275337 36.770727 28.388576 -0.639653 67.104718 -0.486686 0.000000 0.000000 0.000000 7.537403 3.766752 -84.126507 -2.116294 -2.649816 82.154544 -0.000000 -0.000000 0.000000 3.001532 -12.540049 -77.122664 3.023020 -2.983432 84.107217 
-0.187854 0.197729 -1.936870 -7.927210 2.810472 -8.232741 0.000000 0.000000 0.000000 4.243303 0.163393 17.475939 1.139151 0.019826 6.079469 0.000000 0.000000 0.000000 1.484333 0.166090 5.550396 0.449500 -2.158563 9.578508 1.355684 0.087166 5.559026 -7.115350 -7.232609 1.177945 -58.410523 -17.783260 1.672345 0.093681 -56.037051 0.554632 1.340098 0.138218 5.708126 6.930241 0.966572 0.480608 74.227135 36.838684 28.605479 -0.619435 66.231283 -0.476841 0.000000 0.000000 0.000000 7.539474 3.760388 -84.130543 -2.107866 -2.648428 82.158277 -0.000000 -0.000000 0.000000 3.007348 -12.542248 -77.125573 3.022903 -2.986620 84.113237 
-0.185003 0.202966 -1.979799 -7.932391 2.810499 -8.231331 0.000000 0.000000 0.000000 4.233109 0.175873 17.445456 1.140202 0.019779 6.076875 0.000000 0.000000 0.000000 1.483139 0.168514 5.548716 0.465608 -2.140999 9.553216 1.354767 0.090866 5.558409 -7.118896 -7.326423 1.198746 -58.326895 -17.851814 1.496705 0.099910 -55.447212 0.544393 1.339964 0.140574 5.702879 6.953888 0.956333 0.510095 74.186243 36.914917 28.799309 -0.600462 65.349003 -0.467235 0.000000 0.000000 0.000000 7.541059 3.758458 -84.130396 -2.097297 -2.646605 82.158123 -0.000000 -0.000000 0.000000 3.010771 -12.541285 -77.123229 3.022555 -2.988407 84.114431 
-0.181206 0.208372 -2.022514 -7.938466 2.811119 -8.229766 0.000000 0.000000 0.000000 4.224281 0.189370 17.416331 1.140812 0.020338 6.073414 0.000000 0.000000 0.000000 1.481633 0.171103 5.545547 0.481121 -2.122007 9.522128 1.352784 0.094867 5.556139 -7.125133 -7.421629 1.220673 -58.236689 -17.924172 1.318239 0.103979 -54.858240 0.536256 1.339762 0.142965 5.696164 6.978455 0.955048 0.530960 74.161065 36.997318 28.992121 -0.581092 64.457889 -0.457454 0.000000 0.000000 0.000000 7.541917 3.752148 -84.129433 -2.083383 -2.644722 82.156909 -0.000000 -0.000000 0.000000 3.013336 -12.543545 -77.126936 3.023125 -2.989507 84.117908 
-0.176445 0.213983 -2.065041 -7.944036 2.808910 -8.229982 0.000000 0.000000 0.000000 4.213319 0.202901 17.382556 1.140437 0.021300 6.068818 0.000000 0.000000 0.000000 1.479872 0.174405 5.542237 0.495427 -2.103416 9.490167 1.350581 0.099187 5.553531 -7.129666 -7.505945 1.239766 -58.145159 -18.007403 1.107946 0.109275 -54.284861 0.527199 1.339023 0.145731 5.690582 7.008918 0.955721 0.547589 74.136624 37.100228 29.155422 -0.562220 63.580301 -0.446856 0.000000 0.000000 0.000000 7.543423 3.744072 -84.130673 -2.071847 -2.640761 82.159663 -0.000000 -0.000000 0.000000 3.015137 -12.544156 -77.127879 3.021969 -2.991646 84.121235 
-0.170697 0.219899 -2.107335 -7.949539 2.806784 -8.226754 0.000000 0.000000 0.000000 4.204618 0.216346 17.349781 1.140171 0.021431 6.062517 0.000000 0.000000 0.000000 1.477863 0.177429 5.537010 0.508230 -2.081378 9.459254 1.348339 0.103465 5.550525 -7.131844 -7.589765 1.259105 -58.045559 -18.107571 0.900680 0.112989 -53.730937 0.519997 1.338619 0.149031 5.685245 7.046108 0.965921 0.557203 74.114840 37.206119 29.307214 -0.545527 62.795389 -0.438349 0.000000 0.000000 0.000000 7.543955 3.737369 -84.129188 -2.053076 -2.637270 82.159214 -0.000000 -0.000000 0.000000 3.014047 -12.545369 -77.128466 3.022234 -2.992020 84.123942 
